subject01_walk1_RRA_states
nRows=5
nColumns=47

# SIMM Motion File Header:
name subject01_walk1_RRA_states
datacolumns 47
datarows 5
otherdata 1
range 0.99600000000000022000 0.99800000000000022000
endheader
time	pelvis_tx	pelvis_ty	pelvis_tz	pelvis_tilt	pelvis_list	pelvis_rotation	hip_flexion_r	hip_adduction_r	hip_rotation_r	knee_angle_r	ankle_angle_r	subtalar_angle_r	mtp_angle_r	hip_flexion_l	hip_adduction_l	hip_rotation_l	knee_angle_l	ankle_angle_l	subtalar_angle_l	mtp_angle_l	lumbar_extension	lumbar_bending	lumbar_rotation	pelvis_tx_u	pelvis_ty_u	pelvis_tz_u	pelvis_tilt_u	pelvis_list_u	pelvis_rotation_u	hip_flexion_r_u	hip_adduction_r_u	hip_rotation_r_u	knee_angle_r_u	ankle_angle_r_u	subtalar_angle_r_u	mtp_angle_r_u	hip_flexion_l_u	hip_adduction_l_u	hip_rotation_l_u	knee_angle_l_u	ankle_angle_l_u	subtalar_angle_l_u	mtp_angle_l_u	lumbar_extension_u	lumbar_bending_u	lumbar_rotation_u
      0.99600000000000022000	      0.59155422482423647000	      1.04519931303060850000	      0.04875796635829769700	      5.23209168884128050000	      0.00978410692429093970	      0.53547352475550747000	     -2.85368001382354160000	      1.92954150291541260000	     -3.93532553605787610000	    -11.54578521161352900000	      7.90905654984311650000	      0.05103189936631340900	     -0.00110032937996083960	     18.19217924266551700000	     -3.23139015300320050000	     -4.06062691030109680000	    -58.75131741894174600000	      2.12488025605072210000	     -0.00357673362529690010	     -0.04845382265417849700	    -16.23012163062241700000	      1.83974799962163790000	      0.51251308346104285000	     -0.13221033319917544000	      0.03515348698291116000	      0.08166782014285115000	      1.30478867791720730000	      4.02843555047864220000	    -18.07578835931410300000	    -87.94879305855776900000	      1.40744696544623070000	     10.42654060826508000000	     50.01270577108577000000	     15.88465206098820400000	      0.30007208326030599000	     -0.40207716325995119000	     58.16206989794451200000	      8.87220082537335130000	    -28.90807132882347800000	    222.75850557018040000000	     -1.12200257317191340000	      0.00763506697949595680	      0.29313264903423697000	     -9.86339416877340190000	    -13.49513253717658900000	     22.52248245310106600000
      0.99650000000000016000	      0.59148809189767748000	      1.04521670428773690000	      0.04879873432956428900	      5.23273614746110200000	      0.01174625705358746000	      0.52646111206646751000	     -2.89762660996658110000	      1.93028818363767440000	     -3.93014994825263080000	    -11.52080970235441100000	      7.91697974729361140000	      0.05118091047987775900	     -0.00130124555531567660	     18.22115013045782600000	     -3.22706183348225340000	     -4.07520875687355580000	    -58.63964095435682100000	      2.12420731978079220000	     -0.00357290334658116190	     -0.04830740152642652000	    -16.23504591489233900000	      1.83305799679845930000	      0.52374805614227748000	     -0.13232090592714912000	      0.03441149935623980000	      0.08140413687968514600	      1.27295898903815470000	      3.82004534346301570000	    -17.97391031240665900000	    -87.83774892700886000000	      1.57941130763401530000	     10.27631559031249300000	     49.88970474226782400000	     15.80868419912337300000	      0.29604816402472828000	     -0.40219078095066013000	     57.72138738063493000000	      8.44116031457812350000	    -29.41925095562348600000	    223.94714177810965000000	     -1.56934713461150510000	      0.00767865297721231910	      0.29254859956723966000	     -9.83359240976633050000	    -13.26474310840417000000	     22.41752903295228100000
      0.99700000000000022000	      0.59142190438283160000	      1.04523372449870400000	      0.04883937056239975200	      5.23336456326596980000	      0.01360402398579378300	      0.51749956922744644000	     -2.94151791942230070000	      1.93112105754190560000	     -3.92504872931628010000	    -11.49589513696414200000	      7.92486541591495360000	      0.05132793847969895800	     -0.00150250313401338380	     18.24990053554836700000	     -3.22294891769904090000	     -4.09004609369991460000	    -58.52737048990011500000	      2.12331130267168260000	     -0.00356905483777996160	     -0.04816127474322796900	    -16.23995507547724800000	      1.82648340274700540000	      0.53493073290597815000	     -0.13242869143297298000	      0.03366932524585364300	      0.08114085746975492600	      1.24062198548505780000	      3.61088553425690510000	    -17.87230368258370900000	    -87.72764490316858100000	      1.75223576135271770000	     10.12903840565615500000	     49.76892273407819500000	     15.73381865129606500000	      0.29195858185102569000	     -0.40222245281326657000	     57.28013840279711400000	      8.01057006218227490000	    -29.93002459139716700000	    225.13450006252137000000	     -2.01432856139932070000	      0.00772316105293705930	      0.29196040066086787000	     -9.80290540673900250000	    -13.03347639442744700000	     22.31329825924103700000
      0.99750000000000016000	      0.59135566367072090000	      1.04525037357589160000	      0.04887987525519911500	      5.23397668392307300000	      0.01535701605717543600	      0.50858875874437059000	     -2.98535441109470990000	      1.93204056424880300000	     -3.92002040675600540000	    -11.47104041621349800000	      7.93271387614096920000	      0.05147268500787146500	     -0.00170367939337861440	     18.27843017924209000000	     -3.21905117726132820000	     -4.10513869696039620000	    -58.41450667294323300000	      2.12219338380127050000	     -0.00356517879771410400	     -0.04801544203959640100	    -16.24484867199249300000	      1.82002466408410200000	      0.54606147795067761000	     -0.13253368972632285000	      0.03292692989992301200	      0.08087798587665059900	      1.20777207148407560000	      3.40096714554426560000	    -17.77099478639236500000	    -87.61847900167080600000	      1.92592741185103630000	      9.98477810151678470000	     49.65032399185742700000	     15.66076728030100400000	      0.28683236514032301000	     -0.40343394883112776000	     56.83835201607396900000	      7.58049792397984930000	    -30.44029020973572100000	    226.32054515972021000000	     -2.45695416509695490000	      0.00777544648991558910	      0.29136681165203282000	     -9.77132878354397330000	    -12.80134808476795200000	     22.20980857903196400000
      0.99800000000000022000	      0.59128937115854430000	      1.04526665138763230000	      0.04892024861064035700	      5.23457224975153770000	      0.01700486783902474500	      0.49972852143709939000	     -3.02913655711612060000	      1.93304712388973090000	     -3.91506344423533290000	    -11.44624444409693500000	      7.94052641300098920000	      0.05161471459011020300	     -0.00190598449884290290	     18.30673880169220900000	     -3.21536831964313350000	     -4.12048628086371590000	    -58.30105016855311800000	      2.12085473899919920000	     -0.00356127896190886220	     -0.04786990868834489800	    -16.24972625607721700000	      1.81368219497361990000	      0.55714066668207274000	     -0.13263589499644793000	      0.03218429011618512100	      0.08061548720923424100	      1.17440890290053290000	      3.19030962009333010000	    -17.67000379050288900000	    -87.51026609955852100000	      2.10045071593445920000	      9.84355786740872320000	     49.53394150969361200000	     15.58904482675894500000	      0.28143988024282696000	     -0.40483609354275996000	     56.39605064819682000000	      7.15102779241358810000	    -30.94993659501534100000	    227.50524610862709000000	     -2.89723648502954490000	      0.00782990334060183760	      0.29076877777735421000	     -9.73886331706962590000	    -12.56837839580602200000	     22.10706985858898900000
